<svg width="600" height="600">
<path d="M600 600 l-20 0 l0 -20 l20 0 l0 -20 l0 -20 l-20 0 l0 20 l-20 0 l0 -20 l-20 0 l0 20 l0 20 l20 0 l0 20 l-20 0 l-20 0 l0 -20 l-20 0 l0 20 l-20 0 l-20 0 l0 -20 l20 0 l0 -20 l-20 0 l0 -20 l20 0 l20 0 l0 20 l20 0 l0 -20 l0 -20 l0 -20 l-20 0 l0 20 l-20 0 l-20 0 l0 -20 l20 0 l0 -20 l-20 0 l0 -20 l20 0 l20 0 l0 20 l20 0 l0 -20 l20 0 l20 0 l0 20 l-20 0 l0 20 l0 20 l20 0 l0 -20 l20 0 l0 20 l20 0 l0 -20 l0 -20 l-20 0 l0 -20 l20 0 l0 -20 l0 -20 l-20 0 l0 20 l-20 0 l-20 0 l0 -20 l20 0 l0 -20 l-20 0 l0 -20 l20 0 l20 0 l0 20 l20 0 l0 -20 l0 -20 l-20 0 l0 -20 l20 0 l0 -20 l0 -20 l-20 0 l0 20 l-20 0 l0 -20 l-20 0 l0 20 l0 20 l20 0 l0 20 l-20 0 l-20 0 l-20 0 l0 -20 l20 0 l0 -20 l0 -20 l-20 0 l0 20 l-20 0 l0 -20 l-20 0 l0 20 l0 20 l20 0 l0 20 l-20 0 l0 20 l0 20 l20 0 l0 -20 l20 0 l20 0 l0 20 l-20 0 l0 20 l20 0 l0 20 l-20 0 l-20 0 l0 -20 l-20 0 l0 20 l-20 0 l0 -20 l-20 0 l0 20 l-20 0 l-20 0 l0 -20 l20 0 l0 -20 l-20 0 l0 -20 l20 0 l20 0 l0 20 l20 0 l0 -20 l0 -20 l-20 0 l0 -20 l20 0 l0 -20 l0 -20 l-20 0 l0 20 l-20 0 l0 -20 l-20 0 l0 20 l0 20 l20 0 l0 20 l-20 0 l-20 0 l-20 0 l0 -20 l20 0 l0 -20 l0 -20 l-20 0 l0 20 l-20 0 l0 -20 l-20 0 l0 20 l0 20 l20 0 l0 20 l-20 0 l0 20 l0 20 l20 0 l0 -20 l20 0 l20 0 l0 20 l-20 0 l0 20 l20 0 l0 20 l-20 0 l-20 0 l0 -20 l-20 0 l0 20 l0 20 l20 0 l0 20 l-20 0 l0 20 l0 20 l20 0 l0 -20 l20 0 l0 20 l20 0 l0 -20 l0 -20 l-20 0 l0 -20 l20 0 l20 0 l0 20 l20 0 l0 -20 l20 0 l20 0 l0 20 l-20 0 l0 20 l20 0 l0 20 l-20 0 l-20 0 l0 -20 l-20 0 l0 20 l0 20 l0 20 l20 0 l0 -20 l20 0 l20 0 l0 20 l-20 0 l0 20 l20 0 l0 20 l-20 0 l-20 0 l0 -20 l-20 0 l0 20 l-20 0 l-20 0 l0 -20 l20 0 l0 -20 l0 -20 l-20 0 l0 20 l-20 0 l0 -20 l-20 0 l0 20 l0 20 l20 0 l0 20 l-20 0 l-20 0 l0 -20 l-20 0 l0 20 l-20 0 l-20 0 l0 -20 l20 0 l0 -20 l-20 0 l0 -20 l20 0 l20 0 l0 20 l20 0 l0 -20 l0 -20 l-20 0 l0 -20 l20 0 l0 -20 l0 -20 l-20 0 l0 20 l-20 0 l0 -20 l-20 0 l0 20 l0 20 l20 0 l0 20 l-20 0 l-20 0 l-20 0 l0 -20 l20 0 l0 -20 l0 -20 l-20 0 l0 20 l-20 0 l0 -20 l-20 0 l0 20 l0 20 l20 0 l0 20 l-20 0 l0 20 l0 20 l20 0 l0 -20 l20 0 l20 0 l0 20 l-20 0 l0 20 l20 0 l0 20 l-20 0 l-20 0 l0 -20 l-20 0 l0 20 l-20 0 l-20 0 l0 -20 l20 0 l0 -20 l0 -20 l-20 0 l0 20 l-20 0 l0 -20 l-20 0 l0 20 l0 20 l20 0 l0 20 l-20 0 l-20 0 l0 -20 l-20 0 l0 20 l-20 0 l-20 0 l0 -20 l20 0 l0 -20 l-20 0 l0 -20 l20 0 l20 0 l0 20 l20 0 l0 -20 l0 -20 l0 -20 l-20 0 l0 20 l-20 0 l-20 0 l0 -20 l20 0 l0 -20 l-20 0 l0 -20 l20 0 l20 0 l0 20 l20 0 l0 -20 l20 0 l20 0 l0 20 l-20 0 l0 20 l0 20 l20 0 l0 -20 l20 0 l0 20 l20 0 l0 -20 l0 -20 l-20 0 l0 -20 l20 0 l0 -20 l-20 0 l0 -20 l20 0 l0 -20 l0 -20 l-20 0 l0 20 l-20 0 l0 -20 l-20 0 l0 20 l0 20 l20 0 l0 20 l-20 0 l-20 0 l0 -20 l-20 0 l0 20 l-20 0 l-20 0 l0 -20 l20 0 l0 -20 l-20 0 l0 -20 l20 0 l20 0 l0 20 l20 0 l0 -20 l0 -20 l0 -20 l-20 0 l0 20 l-20 0 l-20 0 l0 -20 l20 0 l0 -20 l-20 0 l0 -20 l20 0 l20 0 l0 20 l20 0 l0 -20 l20 0 l20 0 l0 20 l-20 0 l0 20 l0 20 l20 0 l0 -20 l20 0 l0 20 l20 0 l0 -20 l0 -20 l-20 0 l0 -20 l20 0 l20 0 l0 20 l20 0 l0 -20 l20 0 l20 0 l0 20 l-20 0 l0 20 l20 0 l0 20 l-20 0 l-20 0 l0 -20 l-20 0 l0 20 l0 20 l20 0 l0 20 l-20 0 l0 20 l0 20 l20 0 l0 -20 l20 0 l0 20 l20 0 l0 -20 l0 -20 l-20 0 l0 -20 l20 0 l20 0 l20 0 l0 20 l-20 0 l0 20 l0 20 l20 0 l0 -20 l20 0 l0 20 l20 0 l0 -20 l0 -20 l-20 0 l0 -20 l20 0 l0 -20 l0 -20 l-20 0 l0 20 l-20 0 l-20 0 l0 -20 l20 0 l0 -20 l-20 0 l0 -20 l20 0 l20 0 l0 20 l20 0 l0 -20 l0 -20 l0 -20 l-20 0 l0 20 l-20 0 l-20 0 l0 -20 l20 0 l0 -20 l-20 0 l0 -20 l20 0 l20 0 l0 20 l20 0 l0 -20 l0 -20 l-20 0 l0 -20 l20 0 l0 -20 l0 -20 l-20 0 l0 20 l-20 0 l0 -20 l-20 0 l0 20 l0 20 l20 0 l0 20 l-20 0 l-20 0 l-20 0 l0 -20 l20 0 l0 -20 l0 -20 l-20 0 l0 20 l-20 0 l0 -20 l-20 0 l0 20 l0 20 l20 0 l0 20 l-20 0 l0 20 l0 20 l20 0 l0 -20 l20 0 l20 0 l0 20 l-20 0 l0 20 l20 0 l0 20 l-20 0 l-20 0 l0 -20 l-20 0 l0 20 l-20 0 l-20 0 l0 -20 l20 0 l0 -20 l0 -20 l-20 0 l0 20 l-20 0 l0 -20 l-20 0 l0 20 l0 20 l20 0 l0 20 l-20 0 l-20 0 l0 -20 l-20 0 l0 20 l-20 0 l-20 0 l0 -20 l20 0 l0 -20 l-20 0 l0 -20 l20 0 l20 0 l0 20 l20 0 l0 -20 l0 -20 l0 -20 l-20 0 l0 20 l-20 0 l-20 0 l0 -20 l20 0 l0 -20 l-20 0 l0 -20 l20 0 l20 0 l0 20 l20 0 l0 -20 l20 0 l20 0 l0 20 l-20 0 l0 20 l0 20 l20 0 l0 -20 l20 0 l0 20 l20 0 l0 -20 l0 -20 l-20 0 l0 -20 l20 0 l0 -20 l-20 0 l0 -20 l20 0 l0 -20 l0 -20 l-20 0 l0 20 l-20 0 l0 -20 l-20 0 l0 20 l0 20 l20 0 l0 20 l-20 0 l-20 0 l0 -20 l-20 0 l0 20 l-20 0 l-20 0 l0 -20 l20 0 l0 -20 l-20 0 l0 -20 l20 0 l20 0 l0 20 l20 0 l0 -20 l0 -20 l0 -20 l-20 0 l0 20 l-20 0 l-20 0 l0 -20 l20 0 l0 -20 l-20 0 l0 -20 l20 0 l20 0 l0 20 l20 0 l0 -20 l20 0 l20 0 l0 20 l-20 0 l0 20 l0 20 l20 0 l0 -20 l20 0 l0 20 l20 0 l0 -20 l0 -20 l-20 0 l0 -20 l20 0 l20 0 l0 20 l20 0 l0 -20 l20 0 l20 0 l0 20 l-20 0 l0 20 l20 0 l0 20 l-20 0 l-20 0 l0 -20 l-20 0 l0 20 l0 20 l20 0 l0 20 l-20 0 l0 20 l0 20 l20 0 l0 -20 l20 0 l0 20 l20 0 l0 -20 l0 -20 l-20 0 l0 -20 l20 0 l20 0 l20 0 l0 20 l-20 0 l0 20 l0 20 l20 0 l0 -20 l20 0 l0 20 l20 0 l0 -20 l0 -20 l-20 0 l0 -20 l20 0 l0 -20 l0 -20 l-20 0 l0 20 l-20 0 l-20 0 l0 -20 l20 0 l0 -20 l-20 0 l0 -20 l20 0 l20 0 l0 20 l20 0 l0 -20 l20 0 l20 0 l0 20 l-20 0 l0 20 l0 20 l20 0 l0 -20 l20 0 l0 20 l20 0 l0 -20 l0 -20 l-20 0 l0 -20 l20 0 l20 0 l0 20 l20 0 l0 -20 l20 0 l20 0 l0 20 l-20 0 l0 20 l20 0 l0 20 l-20 0 l-20 0 l0 -20 l-20 0 l0 20 l0 20 l0 20 l20 0 l0 -20 l20 0 l20 0 l0 20 l-20 0 l0 20 l20 0 l0 20 l-20 0 l-20 0 l0 -20 l-20 0 l0 20 l-20 0 l-20 0 l0 -20 l20 0 l0 -20 l0 -20 l-20 0 l0 20 l-20 0 l0 -20 l-20 0 l0 20 l0 20 l20 0 l0 20 l-20 0 l0 20 l0 20 l20 0 l0 -20 l20 0 l20 0 l0 20 l-20 0 l0 20 l20 0 l0 20 l-20 0 l-20 0 l0 -20 l-20 0 l0 20 l0 20 l20 0 l0 20 l-20 0 l0 20 l0 20 l20 0 l0 -20 l20 0 l0 20 l20 0 l0 -20 l0 -20 l-20 0 l0 -20 l20 0 l20 0 l20 0 l0 20 l-20 0 l0 20 l0 20 l20 0 l0 -20 l20 0 l0 20 l20 0 l0 -20 l0 -20 l-20 0 l0 -20 l20 0 l0 -20 l0 -20 l-20 0 l0 20 l-20 0 l-20 0 l0 -20 l20 0 l0 -20 l-20 0 l0 -20 l20 0 l20 0 l0 20 l20 0 l0 -20 l20 0 l0 20 l20 0 l0 -20 l20 0 l20 0 l0 20 l-20 0 l0 20 l20 0 l0 20 l-20 0 l-20 0 l0 -20 l-20 0 l0 20 l0 20 l20 0 l0 20 l-20 0 l0 20 l0 20 l20 0 l0 -20 l20 0 l0 20 l20 0 l0 -20 l0 -20 l-20 0 l0 -20 l20 0 l20 0 l20 0 l0 20 l-20 0 l0 20 l0 20 l20 0 l0 -20 l20 0 l0 20 l20 0 l0 -20 l0 -20 l-20 0 l0 -20 l20 0 l0 -20 l0 -20 l-20 0 l0 20 l-20 0 l-20 0 l0 -20 l20 0 l0 -20 l-20 0 l0 -20 l20 0 l20 0 l0 20 l20 0 l0 -20 l0 -20 l-20 0 l0 -20 l20 0 l0 -20 l0 -20 l-20 0 l0 20 l-20 0 l0 -20 l-20 0 l0 20 l0 20 l20 0 l0 20 l-20 0 l-20 0 l0 -20 l-20 0 l0 20 l-20 0 l-20 0 l0 -20 l20 0 l0 -20 l-20 0 l0 -20 l20 0 l20 0 l0 20 l20 0 l0 -20 l0 -20 l0 -20 l-20 0 l0 20 l-20 0 l-20 0 l0 -20 l20 0 l0 -20 l-20 0 l0 -20 l20 0 l20 0 l0 20 l20 0 l0 -20 l20 0 l20 0 l0 20 l-20 0 l0 20 l0 20 l20 0 l0 -20 l20 0 l0 20 l20 0 l0 -20 l0 -20 l-20 0 l0 -20 l20 0 " fill="none" stroke="purple" stroke-width="2"  />
</svg>
